<?xml version="1.0" standalone="no"?>
<!DOCTYPE svg PUBLIC "-//W3C//DTD SVG 20010904//EN"
 "http://www.w3.org/TR/2001/REC-SVG-20010904/DTD/svg10.dtd">
<svg version="1.0" xmlns="http://www.w3.org/2000/svg"
 width="1590.000000pt" height="1590.000000pt" viewBox="0 0 1590.000000 1590.000000"
 preserveAspectRatio="xMidYMid meet">
<metadata>
Created by potrace 1.11, written by Peter Selinger 2001-2013
</metadata>
<g transform="translate(0.000000,1590.000000) scale(0.100000,-0.100000)"
fill="#000000" stroke="none">
<path d="M2900 11529 c-135 -17 -157 -20 -250 -40 -52 -11 -102 -22 -110 -24
-92 -20 -315 -103 -447 -165 -485 -229 -804 -568 -901 -960 -14 -56 -6 -244
12 -300 52 -157 152 -277 282 -337 56 -27 67 -28 199 -28 127 1 148 3 220 28
236 82 365 247 366 469 1 152 -70 266 -214 339 -96 49 -239 50 -364 2 -11 -4
-5 9 17 35 19 23 41 42 48 42 6 0 12 5 12 11 0 16 93 103 180 168 125 94 209
145 350 214 187 91 315 133 519 172 49 9 129 16 206 18 131 2 176 -39 171
-155 -1 -29 -8 -62 -14 -73 -7 -11 -69 -193 -138 -405 -300 -916 -494 -1501
-500 -1511 -2 -4 -23 -3 -46 1 -146 27 -249 35 -463 34 -104 -1 -235 -4 -290
-8 -155 -12 -184 -14 -280 -21 -49 -3 -103 -8 -120 -10 -16 -3 -121 -7 -232
-11 -226 -7 -267 -1 -326 47 -96 79 -123 294 -52 429 10 19 44 73 75 120 91
135 98 158 70 211 -30 55 -182 73 -270 32 -73 -34 -167 -133 -222 -233 -26
-48 -28 -53 -58 -168 -32 -127 -20 -341 26 -436 8 -16 14 -33 14 -38 0 -5 14
-29 30 -53 17 -24 30 -47 30 -52 0 -19 140 -140 197 -171 89 -47 170 -65 303
-65 110 0 358 11 410 18 14 2 64 6 111 10 48 3 111 8 140 10 208 17 289 20
479 19 196 0 268 -4 341 -19 l26 -6 -59 -167 c-53 -149 -60 -177 -63 -259 -5
-140 29 -228 118 -310 77 -71 153 -101 274 -107 301 -14 538 224 528 531 -6
172 -105 334 -291 475 l-52 39 23 67 c13 37 62 189 110 337 48 149 108 338
135 420 27 83 78 240 113 350 36 110 108 335 161 500 54 165 106 327 116 360
84 262 2 483 -219 593 l-75 37 -145 1 c-81 1 -175 -3 -211 -7z m-1073 -1357
c98 -53 48 -135 -83 -136 -55 -1 -66 2 -101 30 -21 17 -38 37 -38 45 0 18 74
58 127 68 48 9 68 7 95 -7z m999 -1777 c39 -82 29 -170 -23 -194 -51 -23 -113
-1 -113 42 0 11 17 72 37 134 l38 114 18 -23 c10 -13 29 -45 43 -73z"/>
<path d="M4257 11521 c-63 -25 -130 -81 -151 -125 -22 -46 -23 -114 -3 -153 9
-17 33 -39 54 -49 36 -17 81 -18 733 -20 382 0 709 -4 725 -7 17 -3 49 -9 73
-12 24 -3 77 -18 119 -32 209 -70 348 -195 456 -410 l37 -72 -48 -6 c-26 -3
-63 -8 -82 -11 -36 -4 -71 -10 -125 -19 -16 -3 -46 -8 -65 -11 -19 -3 -96 -21
-170 -39 -502 -125 -1029 -364 -1378 -625 -182 -136 -391 -368 -449 -498 -43
-99 -31 -199 33 -266 33 -35 113 -71 185 -85 54 -10 282 -8 329 3 107 25 411
25 530 1 14 -3 52 -10 85 -15 178 -29 379 -102 528 -193 37 -23 67 -44 67 -48
0 -3 -33 -106 -74 -228 -71 -212 -74 -226 -74 -314 0 -154 56 -277 162 -356
25 -19 44 -36 42 -38 -1 -2 -39 14 -82 36 -130 65 -243 95 -354 95 -51 0 -165
-14 -200 -24 -16 -5 -30 -7 -30 -5 0 8 -167 -53 -220 -80 -124 -62 -246 -169
-303 -267 -73 -125 -93 -311 -49 -454 49 -159 157 -269 321 -325 78 -27 310
-21 426 10 102 28 249 98 333 158 72 51 199 173 252 242 l34 44 95 -100 c53
-54 134 -141 181 -193 47 -51 90 -98 95 -104 17 -18 196 -227 245 -286 92
-112 114 -131 150 -136 46 -6 97 27 128 84 30 54 37 84 37 162 0 53 -5 72 -25
100 -23 33 -218 279 -230 290 -3 3 -41 48 -85 100 -122 145 -168 196 -287 317
l-110 112 33 87 c33 85 35 86 79 101 164 52 297 169 340 298 20 60 27 178 15
240 -34 178 -130 338 -309 516 l-86 85 46 135 c25 74 47 139 48 144 2 6 6 17
9 25 5 15 70 210 72 220 1 3 4 12 8 20 3 8 56 168 118 355 61 187 116 344 120
349 19 21 225 -32 336 -86 194 -93 326 -244 367 -419 19 -79 14 -232 -9 -307
l-16 -52 -42 5 c-98 12 -131 12 -191 -2 -145 -33 -259 -153 -290 -307 -22
-106 5 -170 95 -226 170 -104 408 -67 579 92 126 117 231 317 265 508 7 38 8
256 1 305 -57 413 -345 705 -817 829 -51 14 -107 27 -123 30 -16 3 -31 7 -33
10 -7 6 60 118 105 176 58 75 177 183 249 226 119 71 265 121 413 140 30 4
233 8 450 9 259 1 404 6 422 13 15 6 44 28 65 49 107 107 105 255 -2 291 -63
21 -929 11 -1047 -12 -318 -61 -568 -208 -812 -476 -36 -39 -41 -42 -50 -25
-55 94 -166 218 -261 289 -148 113 -291 171 -545 222 -19 4 -345 9 -725 10
-660 4 -692 3 -738 -15z m1950 -1268 c-3 -10 -30 -94 -60 -188 -137 -421 -250
-773 -259 -802 -5 -18 -13 -33 -19 -33 -5 0 -38 14 -72 31 -106 54 -337 133
-451 155 -11 2 -32 6 -46 9 -14 2 -40 7 -57 10 -18 3 -45 7 -60 9 -34 6 -132
17 -187 22 -60 5 -352 4 -414 -1 -29 -3 -59 -8 -65 -11 -30 -18 44 58 136 140
179 157 528 364 821 485 221 92 557 182 710 190 23 1 27 -3 23 -16z m-77
-1798 c40 -58 60 -106 64 -151 5 -47 -19 -92 -52 -101 -42 -10 -112 4 -137 27
-30 28 -41 80 -25 110 6 12 22 58 36 103 36 121 31 115 60 82 15 -17 38 -48
54 -70z m-710 -809 c45 -9 147 -57 185 -89 l29 -25 -29 -42 c-44 -63 -165
-172 -231 -207 -51 -27 -105 -47 -164 -60 -43 -9 -153 -10 -187 -1 -108 27
-149 151 -88 268 32 62 160 142 250 156 22 3 41 7 43 9 5 5 154 -3 192 -9z"/>
<path d="M8895 11533 c-53 -13 -109 -79 -122 -142 -9 -44 -6 -124 5 -153 24
-59 38 -62 336 -64 305 -1 348 -8 471 -72 120 -63 358 -322 295 -322 -16 0
-161 -71 -230 -113 -313 -190 -615 -559 -645 -789 -29 -213 71 -411 253 -500
61 -30 75 -33 172 -35 123 -2 183 8 296 48 134 49 245 122 378 250 l59 57 47
-72 c148 -226 302 -312 505 -281 318 49 506 237 568 570 22 117 13 192 -38
301 -42 92 -93 161 -197 265 -110 111 -200 177 -333 245 -60 31 -112 58 -114
60 -7 7 98 111 149 148 122 89 215 121 360 121 97 0 110 -2 170 -31 157 -75
282 -258 367 -539 13 -44 26 -87 28 -95 2 -8 15 -60 29 -115 21 -86 58 -248
72 -318 3 -20 -35 -150 -137 -462 -43 -129 -93 -287 -94 -295 0 -3 -5 -18 -12
-35 -6 -16 -39 -118 -73 -225 -34 -107 -71 -224 -83 -260 -12 -36 -22 -67 -22
-70 -1 -3 -11 -36 -22 -75 -31 -103 -35 -123 -38 -200 -12 -229 122 -431 323
-487 83 -22 217 -19 287 7 122 46 231 138 293 249 56 97 62 161 58 536 -3 184
-7 362 -10 395 -3 33 -7 85 -10 115 -3 30 -8 91 -12 135 -3 44 -8 88 -9 97 -2
9 -6 44 -10 77 -3 33 -8 68 -10 79 -2 10 -6 43 -10 73 -3 30 -11 83 -16 119
-27 174 -27 150 0 235 202 639 248 774 285 850 89 184 219 298 389 342 47 12
116 16 282 18 227 2 242 4 296 47 33 26 51 80 52 152 2 85 -14 121 -63 148
-32 18 -54 19 -290 16 l-255 -4 -95 -33 c-52 -17 -119 -46 -150 -63 -166 -93
-339 -258 -446 -426 -38 -58 -105 -190 -122 -237 -5 -16 -14 -39 -18 -50 -4
-11 -15 -42 -24 -70 l-16 -50 -23 90 c-112 431 -346 676 -691 724 -161 23
-396 -8 -547 -70 -159 -67 -352 -227 -444 -369 -30 -46 -49 -62 -49 -42 0 4
-19 37 -42 73 -192 297 -410 461 -683 513 -69 14 -574 21 -620 9z m1128 -1204
c4 -156 -5 -213 -48 -307 -28 -60 -52 -92 -118 -157 -90 -89 -160 -130 -256
-150 -63 -13 -111 -11 -153 6 -72 29 -85 141 -28 248 76 141 311 347 517 452
42 21 78 37 80 35 2 -2 5 -59 6 -127z m465 102 c142 -72 322 -219 387 -317 33
-50 38 -63 38 -118 0 -163 -114 -291 -241 -271 -51 8 -115 48 -156 98 -52 64
-115 196 -132 279 -14 67 -14 188 0 229 3 8 7 28 9 44 8 53 19 85 28 85 5 0
35 -13 67 -29z m1420 -1359 c0 -9 3 -87 8 -172 14 -251 11 -618 -4 -665 -20
-57 -54 -80 -124 -80 -68 0 -102 26 -119 89 -22 80 -5 155 111 500 60 181 110
335 110 343 0 8 4 12 9 8 6 -3 9 -13 9 -23z"/>
<path d="M14757 8494 c-1 -1 -62 -4 -135 -8 -73 -4 -168 -11 -210 -16 -42 -6
-97 -13 -122 -16 -25 -3 -52 -7 -60 -9 -8 -3 -31 -7 -50 -10 -82 -14 -103 -23
-181 -85 -96 -75 -281 -256 -393 -384 -45 -51 -75 -79 -71 -65 26 83 112 235
202 356 50 69 62 90 46 80 -5 -3 -24 -8 -43 -11 -58 -10 -77 -14 -301 -70
-237 -58 -263 -71 -351 -162 -78 -81 -151 -187 -213 -306 -16 -31 -31 -55 -33
-53 -7 7 30 109 64 177 19 37 58 105 89 152 30 47 55 88 55 91 0 2 -10 1 -22
-4 -13 -5 -41 -14 -63 -21 -62 -19 -206 -70 -242 -86 -17 -8 -34 -14 -37 -14
-3 0 -54 -23 -113 -52 -217 -104 -471 -256 -630 -376 -159 -121 -325 -436
-363 -691 -6 -36 -12 -77 -14 -91 -3 -14 -5 -36 -6 -50 l-1 -25 -14 25 c-16
27 -18 165 -4 229 4 20 10 50 13 66 3 17 14 61 25 100 11 38 18 71 17 73 -3 2
-78 -38 -126 -68 -8 -5 -40 -23 -70 -41 -68 -39 -302 -193 -321 -211 -8 -7
-32 -26 -54 -43 -155 -115 -265 -242 -373 -425 -36 -63 -169 -332 -228 -465
-32 -71 -64 -139 -71 -150 -12 -18 -13 -16 -8 20 10 78 31 149 75 254 16 41
29 76 27 78 -10 9 -119 -170 -148 -242 -26 -65 -69 -224 -70 -260 0 -29 0 -30
-10 -6 -14 35 -1 191 27 330 8 40 13 75 11 78 -3 2 -16 -16 -30 -40 -31 -52
-157 -303 -157 -311 0 -3 -9 -25 -20 -49 -64 -139 -127 -418 -103 -453 5 -5
24 -15 43 -20 34 -10 37 -8 80 40 44 48 291 293 361 358 119 109 230 210 269
244 25 21 52 45 60 53 86 82 506 432 697 582 71 55 135 105 143 112 52 43 329
240 455 324 294 196 444 274 775 406 198 79 504 194 540 203 8 2 69 22 135 44
66 23 127 43 135 45 8 2 46 13 84 25 38 12 76 23 85 26 9 2 90 24 181 49 91
25 178 48 194 51 16 3 32 7 35 9 4 2 60 15 126 30 376 82 576 146 880 283 180
81 269 122 290 134 11 7 45 24 75 39 30 15 52 28 49 28 -7 1 -389 -121 -454
-145 l-40 -15 40 38 c44 41 188 170 214 191 30 24 -44 -16 -245 -133 l-199
-115 168 165 c157 155 178 177 160 173 -5 -1 -30 2 -58 6 -91 13 -109 15 -205
22 -85 6 -259 11 -263 8z"/>
<path d="M15455 8050 c-263 -135 -701 -316 -1295 -533 -52 -20 -207 -70 -345
-112 -137 -42 -279 -88 -315 -102 -36 -13 -90 -34 -120 -45 -30 -11 -64 -24
-75 -29 -11 -4 -69 -28 -130 -53 -157 -64 -356 -156 -530 -244 -248 -126 -640
-357 -803 -472 -23 -16 -44 -30 -47 -30 -13 0 -455 -325 -585 -430 -272 -220
-453 -379 -684 -600 -179 -172 -267 -263 -259 -270 4 -4 38 -15 75 -24 55 -15
76 -16 120 -7 29 6 64 13 77 16 21 4 107 8 456 20 142 5 168 8 295 31 110 19
242 57 355 102 87 35 172 79 130 68 -22 -5 -115 -24 -158 -31 -15 -3 -39 -7
-54 -10 -56 -10 -180 -19 -268 -18 -70 0 -109 6 -168 26 -116 39 -267 65 -392
68 -71 2 -87 10 -51 27 22 10 227 8 299 -2 75 -11 179 -19 247 -20 77 0 270
13 280 19 3 1 32 6 65 9 33 4 67 9 75 11 16 5 54 12 110 21 19 3 82 17 140 30
58 14 116 27 130 30 14 3 48 12 76 20 28 8 61 16 73 19 26 5 282 82 336 101
38 13 37 13 -45 7 -104 -8 -260 -7 -317 1 -23 3 -91 21 -150 40 -59 18 -156
46 -215 61 -60 15 -108 31 -108 36 0 5 6 6 13 4 6 -2 30 -7 52 -10 22 -3 85
-13 140 -21 55 -8 127 -18 160 -22 79 -9 330 -8 425 1 134 13 164 16 245 22
285 19 443 77 637 234 75 60 173 159 166 166 -2 2 -35 7 -74 10 -39 3 -79 7
-90 9 -10 2 -53 9 -94 16 -224 36 -421 95 -570 170 -103 51 -219 96 -275 105
-11 2 -54 11 -95 20 -73 16 -143 28 -167 28 -7 0 -10 3 -9 6 9 13 279 -3 322
-19 13 -5 24 -8 24 -5 0 2 20 -4 45 -15 80 -34 260 -79 382 -96 26 -3 57 -8
67 -10 114 -21 671 -21 756 1 8 2 38 6 65 10 28 3 57 8 65 10 8 2 33 6 54 10
143 21 369 98 466 159 61 38 60 38 -40 51 -84 10 -135 17 -175 25 -34 6 -29 7
35 8 41 1 84 4 95 6 11 2 47 7 80 11 57 6 226 41 215 45 -14 5 -43 8 -121 14
-47 3 -94 8 -106 10 -11 2 -44 7 -74 11 -30 4 -56 9 -58 11 -2 2 43 5 100 5
136 2 217 8 329 25 46 7 174 72 247 125 78 56 202 185 257 267 24 37 42 68 38
69 -4 1 -79 4 -167 7 -175 5 -200 8 -325 37 -83 19 -234 68 -228 75 2 1 21 -1
43 -6 122 -26 218 -35 400 -35 166 0 195 3 333 34 93 21 135 48 182 116 l30
44 -107 -1 c-103 0 -312 11 -323 17 -3 2 -37 6 -75 10 -39 4 -72 9 -74 11 -2
2 57 3 130 3 123 -1 173 2 284 17 123 16 213 35 228 48 8 6 22 40 31 76 10 36
20 73 22 83 5 15 1 17 -23 12 -15 -3 -50 -8 -78 -11 -27 -3 -61 -7 -75 -10
-35 -5 -190 -7 -195 -2 -2 2 88 33 201 68 200 62 205 64 212 94 17 63 -11 188
-41 184 -6 0 -71 -31 -142 -68z m-3785 -2269 c0 -4 -11 -6 -25 -3 -14 2 -25 6
-25 8 0 2 11 4 25 4 14 0 25 -4 25 -9z"/>
<path d="M15230 8018 c-70 -24 -436 -128 -504 -143 -11 -3 -47 -13 -80 -24
-85 -27 -136 -41 -431 -122 -824 -225 -1470 -479 -1940 -761 -206 -125 -537
-345 -630 -420 -5 -5 -71 -54 -145 -111 -75 -56 -169 -129 -210 -162 -78 -63
-301 -246 -310 -255 -3 -3 -59 -52 -125 -110 -255 -223 -412 -370 -718 -673
l-200 -198 24 -16 c13 -9 26 -19 29 -23 3 -3 17 -13 31 -22 l26 -16 61 81 c84
114 492 511 747 728 22 19 49 43 61 54 12 11 30 27 40 35 43 34 129 105 134
110 3 3 59 49 125 101 858 677 1741 1157 2660 1444 420 132 634 203 855 286
211 79 586 232 599 244 8 9 -12 3 -99 -27z"/>
<path d="M9811 4981 c-17 -21 -31 -42 -31 -45 0 -3 43 -38 96 -78 l96 -72 34
38 c19 21 34 42 34 46 0 8 -182 150 -192 150 -4 0 -20 -18 -37 -39z"/>
<path d="M9643 4777 l-98 -93 0 -53 c1 -73 -28 -183 -66 -250 -33 -58 -31 -58
28 -4 28 25 141 74 201 86 l64 13 74 130 74 129 -32 28 c-18 15 -58 45 -90 67
l-56 40 -99 -93z m51 -143 c25 -10 38 -41 27 -63 -15 -28 -49 -33 -72 -10 -23
23 -24 37 -2 61 18 20 23 21 47 12z"/>
<path d="M13397 4474 c-1 -1 -60 -5 -132 -8 -71 -4 -148 -9 -170 -11 -22 -2
-69 -7 -105 -10 -72 -6 -137 -13 -190 -21 -19 -3 -55 -7 -80 -10 -91 -9 -221
-29 -370 -56 -63 -12 -122 -22 -130 -23 -8 -1 -28 -4 -45 -8 -16 -3 -48 -9
-70 -12 -22 -4 -49 -8 -60 -10 -11 -2 -40 -6 -65 -9 -25 -4 -56 -9 -70 -11
-14 -2 -43 -6 -65 -9 -22 -3 -60 -8 -85 -12 -25 -3 -63 -8 -85 -9 -22 -2 -67
-7 -100 -10 -33 -4 -76 -8 -95 -10 -211 -22 -820 -22 -938 0 -10 1 -53 6 -96
10 -43 4 -87 8 -96 10 -9 2 -41 6 -71 10 -30 4 -92 13 -139 21 -47 8 -98 17
-115 20 -16 2 -64 12 -105 20 -41 9 -86 18 -100 20 -14 3 -41 9 -60 14 -48 13
-94 12 -108 -2 -19 -19 -14 -46 11 -62 39 -26 429 -106 642 -131 28 -3 61 -8
75 -10 14 -3 52 -7 85 -10 33 -4 76 -8 95 -10 270 -30 796 -26 1105 9 33 4 80
9 105 12 36 4 360 55 502 80 29 5 333 51 383 59 17 2 73 9 125 15 52 6 105 13
117 15 12 2 57 6 100 10 43 4 88 8 101 10 170 27 925 27 1145 0 15 -2 55 -6
90 -10 34 -3 73 -8 87 -10 224 -34 257 -36 270 -15 12 20 -9 57 -39 69 -30 13
-45 16 -126 27 -33 4 -62 9 -65 9 -3 1 -36 5 -75 9 -38 5 -77 10 -86 11 -8 2
-51 6 -95 10 -43 4 -95 8 -114 10 -129 13 -682 28 -693 19z"/>
</g>
</svg>
